<svg preserveAspectRatio="none" width="100%" height="100%" overflow="visible" style="display: block;" viewBox="0 0 24 24" fill="none" xmlns="http://www.w3.org/2000/svg">
<g id="idea-01">
<path id="Vector" d="M6.08938 14.9992C5.71097 14.1486 5.5 13.2023 5.5 12.2051C5.5 8.50154 8.41015 5.49921 12 5.49921C15.5899 5.49921 18.5 8.50154 18.5 12.2051C18.5 13.2023 18.289 14.1486 17.9106 14.9992" stroke="var(--stroke-0, #385C2D)" stroke-width="2" stroke-linecap="round"/>
<path id="Vector_2" d="M12 1.99921V2.99921" stroke="var(--stroke-0, #385C2D)" stroke-width="2" stroke-linecap="round" stroke-linejoin="round"/>
<path id="Vector_3" d="M22 11.9992H21" stroke="var(--stroke-0, #385C2D)" stroke-width="2" stroke-linecap="round" stroke-linejoin="round"/>
<path id="Vector_4" d="M3 11.9992H2" stroke="var(--stroke-0, #385C2D)" stroke-width="2" stroke-linecap="round" stroke-linejoin="round"/>
<path id="Vector_5" d="M19.0704 4.92792L18.3633 5.63503" stroke="var(--stroke-0, #385C2D)" stroke-width="2" stroke-linecap="round" stroke-linejoin="round"/>
<path id="Vector_6" d="M5.6368 5.636L4.92969 4.92889" stroke="var(--stroke-0, #385C2D)" stroke-width="2" stroke-linecap="round" stroke-linejoin="round"/>
<path id="Vector_7" d="M14.5165 19.3054C15.5269 18.9786 15.9321 18.0538 16.0461 17.1236C16.0801 16.8457 15.8515 16.6152 15.5715 16.6152L8.47637 16.6154C8.18677 16.6154 7.95419 16.8612 7.98877 17.1487C8.10042 18.0771 8.38222 18.7553 9.45297 19.3054M14.5165 19.3054C14.5165 19.3054 9.62923 19.3054 9.45297 19.3054M14.5165 19.3054C14.395 21.2504 13.8333 22.0207 12.0063 21.9991C10.0521 22.0352 9.60255 21.0831 9.45297 19.3054" stroke="var(--stroke-0, #385C2D)" stroke-width="2" stroke-linecap="round" stroke-linejoin="round"/>
</g>
</svg>
