<svg width="1100" height="31" viewBox="0 0 1100 31" fill="none" xmlns="http://www.w3.org/2000/svg">
<path d="M1099.48 1C1099.48 0.447715 1099.03 0 1098.48 0C1097.93 0 1097.48 0.447715 1097.48 1H1098.48H1099.48ZM8.07112 0.292893C7.6806 -0.0976311 7.04743 -0.0976311 6.65691 0.292893L0.292946 6.65685C-0.0975785 7.04738 -0.0975785 7.68054 0.292946 8.07107C0.68347 8.46159 1.31664 8.46159 1.70716 8.07107L7.36401 2.41421L13.0209 8.07107C13.4114 8.46159 14.0446 8.46159 14.4351 8.07107C14.8256 7.68054 14.8256 7.04738 14.4351 6.65685L8.07112 0.292893ZM1098.48 1H1097.48V5.5H1098.48H1099.48V1H1098.48ZM1074.48 29.5V28.5H31.3639V29.5V30.5H1074.48V29.5ZM7.36401 5.5H8.36401V1H7.36401H6.36401V5.5H7.36401ZM31.3639 29.5V28.5C18.6614 28.5 8.36401 18.2026 8.36401 5.5H7.36401H6.36401C6.36401 19.3071 17.5568 30.5 31.3639 30.5V29.5ZM1098.48 5.5H1097.48C1097.48 18.2025 1087.18 28.5 1074.48 28.5V29.5V30.5C1088.29 30.5 1099.48 19.3071 1099.48 5.5H1098.48Z" fill="#E3E3E3"/>
</svg>
