<svg width="24" height="24" viewBox="0 0 24 24" fill="none" xmlns="http://www.w3.org/2000/svg">
  <path d="M4 12C4 7.28595 4 4.92893 5.46447 3.46447C6.92893 2 9.28595 2 14 2C14.2047 2 14.394 2 14.5691 2.00109C14.8756 2.00282 15.0289 2.00369 15.1544 2.09108C15.2798 2.17847 15.3348 2.31766 15.4448 2.59604L18.7222 10.8986C18.8609 11.2495 18.9302 11.425 18.9482 11.612C18.9661 11.799 18.9317 11.9874 18.8629 12.3643L17.9895 17.1383C17.7399 18.5036 17.6151 19.1863 17.1858 19.6431C16.7565 20.1 16.1231 20.2173 14.8563 20.4518L13.4321 20.7154C12.4945 20.888 12.0257 20.9743 11.5542 20.9933C10.5909 21.0322 9.63127 20.8603 8.74346 20.4893L8.32665 20.3152C7.29988 19.8855 6.78649 19.6706 6.35336 19.349C5.93197 19.0362 5.56387 18.6578 5.26294 18.2278C4.95356 17.7855 4.75345 17.2652 4.35322 16.2245L4.09281 15.5475C4.03111 15.387 4 15.3067 4 15.2245V12Z" stroke="#202020" stroke-width="1.5" stroke-linejoin="round"/>
  <path d="M14 2.00195V5.00195C14 6.88756 14 7.83037 14.5858 8.41616C15.1716 9.00195 16.1144 9.00195 18 9.00195H21" stroke="#202020" stroke-width="1.5" stroke-linejoin="round"/>
  <path d="M8 13L12 13" stroke="#202020" stroke-width="1.5" stroke-linecap="round"/>
  <path d="M8 17L11 17" stroke="#202020" stroke-width="1.5" stroke-linecap="round"/>
</svg>
